<svg xmlns="http://www.w3.org/2000/svg" viewBox="0 0 917.04 773"><defs><style>.cls-1{fill:#faefe9;}.cls-2,.cls-6{fill:#fff;}.cls-14,.cls-18,.cls-3{fill:none;}.cls-3{stroke:#000;}.cls-18,.cls-3{stroke-miterlimit:10;}.cls-4{fill:#f2f2f2;}.cls-10,.cls-5,.cls-7{fill:#50b89d;}.cls-5{opacity:0.7;}.cls-6{font-size:44.04px;font-family:ProximaNova-Medium, Proxima Nova;}.cls-7{opacity:0.44;}.cls-8{fill:#ab8de5;}.cls-9{fill:#73e5e2;}.cls-11{fill:#f98b67;}.cls-12{fill:#1f161e;}.cls-13{fill:#fbdc8e;}.cls-14{stroke:#fff;stroke-linejoin:round;stroke-width:0.4px;}.cls-14,.cls-18{stroke-linecap:round;}.cls-15{fill:#b37361;}.cls-16{fill:#f8cdba;}.cls-17{fill:#fa9e9f;}.cls-18{stroke:#1f161e;}.cls-19{fill:#969696;}</style></defs><title>example-scene-1</title><g id="Layer_2" data-name="Layer 2"><g id="Background"><circle class="cls-1" cx="468.03" cy="386.5" r="386.5"/></g><g id="Middle_ground" data-name="Middle ground"><rect class="cls-2" x="445.53" y="218" width="237" height="367"/><line class="cls-3" x1="398.03" y1="442" x2="641.03" y2="442"/><line class="cls-3" x1="398.03" y1="466" x2="641.03" y2="466"/><line class="cls-3" x1="398.03" y1="490" x2="641.03" y2="490"/><line class="cls-3" x1="398.03" y1="514" x2="641.03" y2="514"/><circle class="cls-4" cx="564.03" cy="325" r="62"/><rect class="cls-5" x="641.03" y="348.5" width="98" height="91"/><text class="cls-6" transform="translate(666.15 408.41) scale(0.6 1)">&lt; / &gt;</text><rect class="cls-3" x="36.03" y="37.5" width="529" height="348"/><line class="cls-3" x1="36.03" y1="56" x2="565.03" y2="56"/><rect class="cls-3" x="74.53" y="87" width="159" height="159"/><line class="cls-3" x1="264.03" y1="101" x2="507.03" y2="101"/><line class="cls-3" x1="264.03" y1="125" x2="507.03" y2="125"/><line class="cls-3" x1="264.03" y1="149" x2="507.03" y2="149"/><line class="cls-3" x1="264.03" y1="173" x2="507.03" y2="173"/><polygon class="cls-7" points="154.03 129 110.73 204 197.33 204 154.03 129"/><circle class="cls-8" cx="47.53" cy="47" r="4.5"/><circle class="cls-9" cx="63.03" cy="47" r="4.5"/><circle class="cls-10" cx="78.53" cy="47" r="4.5"/><polygon class="cls-8" points="269.03 321.25 284.03 308 268.73 308 269.03 321.25"/><rect class="cls-8" x="254.03" y="258.5" width="116" height="51" rx="20.68" ry="20.68"/><circle class="cls-2" cx="296.53" cy="284" r="4.5"/><circle class="cls-2" cx="312.03" cy="284" r="4.5"/><circle class="cls-2" cx="327.53" cy="284" r="4.5"/><polygon class="cls-9" points="744.03 171.25 729.03 158 744.33 158 744.03 171.25"/><rect class="cls-9" x="643.03" y="108.5" width="116" height="51" rx="20.68" ry="20.68" transform="translate(1402.06 268) rotate(-180)"/><circle class="cls-2" cx="716.53" cy="134" r="4.5"/><circle class="cls-2" cx="701.03" cy="134" r="4.5"/><circle class="cls-2" cx="685.53" cy="134" r="4.5"/><circle class="cls-11" cx="736.03" cy="42.5" r="4.5"/><circle class="cls-11" cx="745.53" cy="61" r="4.5"/><circle class="cls-11" cx="642.03" cy="243.5" r="7"/><circle class="cls-11" cx="683.03" cy="267.5" r="7"/><circle class="cls-11" cx="53.03" cy="275.5" r="7"/><path class="cls-12" d="M658.23,595.25l0-1-2.4-3-5.55-6.74-5.9-7.14s-5.68-3.93-7.14-4.61c-5.32-2.46-10.56-4.34-16.82-4.34-3.85,0-18.24.58-18.27,3,0,3.59,20.15,17.18,34.93,23.78C643.57,595.25,658.23,595.25,658.23,595.25Z"/><path class="cls-13" d="M655.18,595.25C634.67,579.47,592.8,493.4,603.54,461.5c22.86,11.65,47.94,51.82,59.77,85.74a60.79,60.79,0,0,1,1.53,6.71l4.8,22,1.16,19.33Z"/><path class="cls-9" d="M669.18,595.25c-6.92-5.62-9.13-22.26-9.19-28.47-.11-11.59,1.67-20.13,11.58-32.88S678.84,500,692,485.73s21.88-18.25,37.5-18.25S750.08,492.8,750,499.17c-.18,25.7-16.37,29.34-26.25,41.6-7.17,8.9-7.73,16.18-9.9,20.34-11.64,22.42-21.1,30.85-28.1,34.14"/><path class="cls-14" d="M673,593.39c.2-43.83,46.39-109.66,56.26-119.53"/><path class="cls-14" d="M675.49,573.47c-5.11-5.57-9.76-21.36-9.06-25.46"/><path class="cls-14" d="M662.4,591.47C655.16,578.64,620.81,516.08,608,470"/><path class="cls-15" d="M685.79,595.25h21.52l-18,67H641.18l-17.71-67h62.32"/><path class="cls-14" d="M609.19,572.78c10.49.72,23.69,1.2,33,7.55"/></g><g id="Man"><path class="cls-12" d="M775.47,321c-2.53,12.07-20.91,161.79-14.9,197.55s104,110.69,108.29,112c5-3.67,12.36-15.7,12.36-15.7S809.37,531.56,808,528.22,823.74,332,823.74,332Z"/><polygon class="cls-8" points="892.49 348.25 819.18 647.26 794.49 647.26 819.51 335.33 892.49 348.25"/><path class="cls-13" d="M840.42,177.05c10.12,0,62.91,1.71,72.45,20.29s.55,104.46-5.38,107.79c-3.2,1.79-4.07.05-5,3.69s-10,39.43-10,39.43c-5.76.16-89.74-12.49-117-27.28.16-4.11,1.48-14.8,1.48-15.62-3.62,1.48-8,1.79-9.2,0-10.64-16.11,5.22-100.1,16.6-117C789.21,181.1,824.18,177.1,840.42,177.05Z"/><path class="cls-12" d="M875.18,307.45c2.48,0,23.83,15,22,22.37,1.5-5.92,6.22-24.21,6.22-24.21C901.37,306,877,307.48,875.18,307.45Z"/><path class="cls-16" d="M853.49,186.85c0,3.26-25.71,3.26-25.71,0v-33h25.71Z"/><path class="cls-12" d="M838.74,161.66c2,0,14.75,5.64,14.75,8.78V153.85C850.31,153.85,838.74,161.66,838.74,161.66Z"/><circle class="cls-16" cx="835.22" cy="139.06" r="25.01"/><path class="cls-12" d="M826.76,102.5c-12.84,0-20.84,8.06-20.84,18.39,0,8.59,2.08,13.45,4.53,14.68,1.55-8.34,4.92-12.2,7.71-13.86,2.17,1.66,5.88,5.68,10.84,6.92s17.87,1,28.3,8.58c3.41-3.1,6.81-7.13,6.81-11.88s-2.1-10.71-14.45-14.15C841.5,108.91,840.36,102.5,826.76,102.5Z"/><ellipse class="cls-17" cx="811.85" cy="144.21" rx="4.38" ry="2.28"/><ellipse class="cls-17" cx="839.4" cy="144.21" rx="4.38" ry="2.28"/><path class="cls-18" d="M822.55,139.48c-.82,1.17-5,6.08-.59,8.06"/><path class="cls-18" d="M830.79,153.28c1.32,0,3.35-1.64,4.42-3.11"/><circle class="cls-16" cx="858.34" cy="141.94" r="5.78"/><path class="cls-18" d="M875.76,226.26c-.45,5.52-2.21,32.8-1.55,36.39C865.82,265.57,789,302,775.71,306"/><path class="cls-18" d="M786.54,217.65c-1.77,6.18-7.73,34.23-3.54,47.26"/><path class="cls-18" d="M806.15,293.24c4,2.81,42.34,19.78,95.35,13.38"/><path class="cls-16" d="M802.48,264.91c2.57.41-5.81-6.28-10.56-3.79s-11.15,13.76-9.84,16.37a3.38,3.38,0,0,0,5,1.66C788.37,278.32,798,264.19,802.48,264.91Z"/><path class="cls-12" d="M880.4,616.08c1.37,1,13.52,9.22,13.62,14.4s-11.32,22.35-13.62,22.84-3.94-1.45-3.94-4.92,4.34-9.55,3.76-12.25-6.19-7.64-9.07-7.73"/><path class="cls-12" d="M816.84,647.26c0,2.38,1.38,17.32-1.38,18.71s-33.22,2.21-34.6.83-2.22-4.29-1-5.12,13-3.19,14.6-4.29,3.81-7,3-10.13"/></g><g id="Woman"><rect class="cls-15" x="26.01" y="536.34" width="193.38" height="98.09"/><path class="cls-12" d="M314.66,490.37c.84,5,15.1,119.31,17.41,121.2s26.84,6.08,28.94,2.94c.42-5,1-84.72,2.3-91.85"/><path class="cls-10" d="M38.76,466.52c-9.89-4.87,10.73,91.67,65,91.67s145.62-82.67,160.41-82.67c32.65,0,109.94,64.1,116,64.1,4.64-4.64,13.92-12.76,13.92-16s-74-125-129.37-125C243.25,398.65,61.09,477.55,38.76,466.52Z"/><path class="cls-12" d="M69.3,468.16c10.85-2.46,24.35-8.83,36.3-15.34-32.51,10.63-59.15,17.5-66.84,13.7-5.24-2.58-1.92,23.26,10.4,48.15C46.93,509.86,43.75,474,69.3,468.16Z"/><path class="cls-9" d="M93.22,298.8c8.55.23,53.06-1.08,65.26,10.54,9.05,8.62,37.19,82.75,41.53,108.78C181.11,427.73,44.79,493,2.6,464.3,1.67,442,6,353.35,33.59,306.86,43.68,300.14,85,298.59,93.22,298.8Z"/><path class="cls-16" d="M110.56,277.59h-26v27.94c0,7,26,6.94,26,0Z"/><path class="cls-12" d="M84.56,294.46c0-3.1,8.59-10.89,13.9-10.61.13-3.45-12.13-8.41-12.13-8.41l-1.77,4.77Z"/><path class="cls-12" d="M137.79,277.59a39.08,39.08,0,0,0,.88-8.23c0-20.62-16.11-37.34-36-37.34s-36,16.72-36,37.34a39.08,39.08,0,0,0,.88,8.23Z"/><path class="cls-16" d="M128.3,252.42c-4.41-.67-8.81-4.14-11.88-6.41C98.92,258.83,87.71,259,86.5,259s-6.14,7.08-8.41,7.88l-.2-.12a27.3,27.3,0,1,0,52.47-14.33A8.36,8.36,0,0,1,128.3,252.42Z"/><circle class="cls-12" cx="83.17" cy="226.05" r="10.62"/><path class="cls-18" d="M87.9,258.43a4.47,4.47,0,0,0,0,8.93"/><path class="cls-18" d="M121.94,259c1.31,1.75,4.68,4.82,0,8.07"/><path class="cls-18" d="M107.75,269.41c0,1.31.56,4.44,3.37,5.25"/><ellipse class="cls-17" cx="99.04" cy="267.58" rx="4.12" ry="2.14"/><ellipse class="cls-17" cx="129.67" cy="267.58" rx="4.12" ry="2.14"/><path class="cls-16" d="M157.54,376.07l27.79-7.15C188,373.46,201,418.07,201,418.07L158.1,436.15C158.66,427.7,160.35,389,157.54,376.07Z"/><path class="cls-18" d="M60.1,369.08c0,3.36-2.83,16.15-4.5,22.16"/><path class="cls-18" d="M157.54,376.07c-.67-5.29-4.59-35.1-11.26-50.79"/><path class="cls-16" d="M157.54,376.07l27.79-7.15C188,373.46,201,418.07,201,418.07L158.1,436.15C158.66,427.7,160.35,389,157.54,376.07Z"/><path class="cls-12" d="M381,537.26c.62,1,8.9,11.16,11.83,11.27s20.72-11.94,19.94-14.53-11.94-.9-13.86-1.81S392.7,527,392,525.1"/><path class="cls-12" d="M337.25,612.63c-.21,1.11-1.34,14.2.69,16.32s23.2,5.8,24.43,3.39-8-8.94-8.71-10.92-.86-8,0-9.88"/><polygon class="cls-19" points="304.06 420.87 209.89 420.87 232.31 361.46 326.48 361.46 304.06 420.87"/><rect class="cls-19" x="131.42" y="418.63" width="94.17" height="2.24"/><path class="cls-16" d="M55.6,391.24C53.79,398,45,427,48.58,432s93.24-6.33,117.23-13.8c6.11-2,10.64-7.24,13.35-7.92a14.31,14.31,0,0,1,16.16,10.22c-9.58,4.64-147.9,75.26-192.72,43.83-8.47-6.07,6.39-80.07,7.07-83.8C17.24,381.44,55.6,391.24,55.6,391.24Z"/><path class="cls-18" d="M158.82,420c2.7-.64,5.06-1.27,7-1.87,6.11-2,10.64-7.24,13.35-7.92a14.31,14.31,0,0,1,16.16,10.22"/></g></g></svg>