<svg xmlns="http://www.w3.org/2000/svg" viewBox="0 0 1082.89 787.5"><defs><style>.cls-1{fill:#faefe9;}.cls-2{fill:#e2e2e2;}.cls-3{fill:#efefef;}.cls-4{fill:#99574a;}.cls-5{fill:#73e5e2;}.cls-14,.cls-15,.cls-6,.cls-8{fill:none;stroke-linecap:round;stroke-miterlimit:10;}.cls-6,.cls-8{stroke:#fbdc8e;}.cls-6{stroke-width:2px;}.cls-7{fill:#50b89d;}.cls-8{stroke-width:3px;}.cls-9{fill:#1f161e;}.cls-10{fill:#f8cdba;}.cls-11{fill:#ab8de5;}.cls-12{fill:#fbdc8e;}.cls-13{fill:#fa9e9f;}.cls-14,.cls-15{stroke:#1f161e;}.cls-14{stroke-width:1.2px;}.cls-16{fill:#b37361;}.cls-17{fill:#fff;}</style></defs><title>example-scene-3</title><g id="Layer_2" data-name="Layer 2"><g id="Layer_2-2" data-name="Layer 2"><circle class="cls-1" cx="530.43" cy="386.5" r="386.5"/><path class="cls-2" d="M841.15,786c.17-3.64.28-7.29.28-11,0-175.35-188.36-317.5-420.71-317.5S0,599.68,0,775c0,3.68.11,7.33.28,11Z"/><path class="cls-3" d="M1081.72,786c.12-2.57.21-5.15.21-7.75C1081.93,654.4,941.28,554,767.78,554S453.63,654.4,453.63,778.25c0,2.6.08,5.18.21,7.75Z"/><path class="cls-4" d="M161.93,786a61.49,61.49,0,0,0,.86-10.26c0-27.29-17.75-49.41-39.65-49.41S83.5,748.45,83.5,775.74A61.49,61.49,0,0,0,84.36,786Z"/><path class="cls-4" d="M816.16,786a61.49,61.49,0,0,0,.86-10.26c0-27.29-17.75-49.41-39.65-49.41s-39.65,22.12-39.65,49.41a61.49,61.49,0,0,0,.86,10.26Z"/><polygon class="cls-4" points="967.88 327.02 852.87 786 1082.89 786 967.88 327.02"/><path class="cls-5" d="M686.74,472.54c-20.52,19.55,55.77,90.23,66.86,80.54S706.79,453.44,686.74,472.54Z"/><path class="cls-6" d="M695.38,482.33c8.6,7.45,48,50.39,58.22,70.75"/><path class="cls-7" d="M314.71,494.63c29.5,13.42,32.88,63.17,27.52,74.29-8.57,17.76-39.76,43.46-48.15,61.2-3.6,7.62-34.05,87-62.37,77.74-25.21-8.27-39-44.77-24.76-70.16,21-37.54,29.46-87.62,36.9-101C253.67,519.11,286,481.57,314.71,494.63Z"/><path class="cls-8" d="M221.15,783.71c0-18.18,11-163.65,63.32-223.07"/><line class="cls-8" x1="265.85" y1="588.2" x2="254.52" y2="544.86"/><line class="cls-8" x1="273.18" y1="671.08" x2="298.04" y2="661.03"/><path class="cls-9" d="M499,284.54c3.5.64,12.85,1.94,19.67.64s6.26-15.74-2.16-15.95S499,284.54,499,284.54Z"/><path class="cls-9" d="M452.1,468.61c-2.61,7.84-28,111.06-32.91,116S276.8,660.82,276.8,660.82l9.33,23.6s144.07-46,151.53-50.07,64.26-53.91,72.92-74.85S462.05,468.32,452.1,468.61Z"/><path class="cls-9" d="M590.12,749.71c0,2.37-1.39,17.32,1.38,18.7s33.22,2.22,34.6.83,2.22-4.29,1-5.12-13-3.18-14.6-4.29-3.81-7-3-10.12"/><path class="cls-9" d="M277.84,663.09c-2.19.91-16.53,5.36-16.74,8.45s10.68,31.53,12.49,32.27,4.81.41,5.1-1.06-2-13.23-1.63-15.13,5-6.19,8.21-6.63"/><path class="cls-10" d="M584.81,409.77c-2.95.86-26.66,6.76-29.12,6.76s-5.9,23.82-3.44,23.58,33.55-9.57,41.29-10.31S584.81,409.77,584.81,409.77Z"/><path class="cls-11" d="M498.1,306.61c17.69-1.66,50.34,6.84,60.62,12.73,20.24,11.6-3.12,161.17-13.62,172.27-9.39,3.72-89-15-93-23,2.13-16,33.69-71.46,36.69-74.46-2-2-11-13-11-13s8.09-10.86,9-11.48c-2.58-1.72-28.36-22.08-29.79-23.23C462.15,338.82,492.15,307.17,498.1,306.61Z"/><path class="cls-10" d="M523.49,436.51c-1.39-3.39-44.12-53.37-45.66-55.38,2.33-3.24,6.19-8.22,9.36-11.95-12.2-8.9-25.29-19-30-23.08-.09.1-.13.21-.22.32-2.13,2.55-21.13,31-21.13,35s58.15,60.63,65.41,63.4S524.88,439.91,523.49,436.51Z"/><ellipse class="cls-10" cx="516.42" cy="443.67" rx="15.5" ry="16.98" transform="translate(-137.52 633.13) rotate(-56.82)"/><circle class="cls-10" cx="591.67" cy="418.78" r="13.8"/><path class="cls-12" d="M545.1,491.61s40.45,79.36,46.64,95.86S613,750.7,613,750.7s-20.15,2.38-25.57,0-27.89-109.12-40.28-131c-18.86-33.25-121.31-95.26-95.08-151.14"/><path class="cls-10" d="M514.82,314.78c-.46,2.6,20.68,6.4,21.15,3.79l4.72-26.32-21.14-3.8Z"/><path class="cls-9" d="M533.36,299.27c-2.06-.37-16.31,3.09-16.89,6.34l3.08-17.16C522.84,289,533.36,299.27,533.36,299.27Z"/><circle class="cls-10" cx="541.48" cy="272" r="30.13"/><ellipse class="cls-13" cx="568.09" cy="283.09" rx="2.75" ry="5.28" transform="translate(189.14 792.26) rotate(-79.83)"/><ellipse class="cls-13" cx="535.43" cy="277.23" rx="2.75" ry="5.28" transform="translate(168.01 755.29) rotate(-79.83)"/><path class="cls-14" d="M556.41,275.2c.73,1.56,4.67,8.27-1,9.69"/><path class="cls-14" d="M543.7,289.81c-1.55-.33-3.62-2.65-4.58-4.63"/><path class="cls-15" d="M485.54,371.16c2.75-3.07,13-15.75,17.41-19.31"/><path class="cls-9" d="M545.6,231.67c-8,0-31.75-3.92-37.53-8-2.3,1.61-10.78,11.4-17.12,24l12.46,9.72-14.79-4.69a57.85,57.85,0,0,0-5,20.61c4.84,9.28,16.69,11.87,18.84,11.87,14,0,16.6-22.07,23.21-25.59,11.22-6,26.57,4,43.93,1.06C572.39,252.25,564.76,231.67,545.6,231.67Z"/><circle class="cls-10" cx="513.45" cy="270.5" r="6.96"/><path class="cls-9" d="M489.81,435.93c-2.57-2.35-26.05,1.22-31,13.61,6.51-14.25,12.61-26,14.42-28.86C475.16,422.52,489.81,435.93,489.81,435.93Z"/><path class="cls-9" d="M562,417.33c-.55,4,3.07,19.35,10.54,17.38l-13.69,3.74Z"/><path class="cls-5" d="M136.46,280c40.7,0,54.44,27.6,54.44,46.78,0,40-8.66,31.08-8.66,72.43,0,44.42,56.92,100.53,56.92,177.27,0,104.9-91.57,120.28-102.7,120.28-57.74,0-79.2-63.54-79.2-102.08,0-45.65,40.22-94.57,40.22-138.59,0-32.2-10.52-44.71-10.52-94.63C87,311.3,116,280,136.46,280Z"/><line class="cls-8" x1="133.41" y1="783.71" x2="133.41" y2="346.1"/><line class="cls-8" x1="133.41" y1="630.12" x2="201.21" y2="560.64"/><line class="cls-8" x1="131.72" y1="435.11" x2="109.88" y2="413.27"/><line class="cls-8" x1="133.41" y1="376.54" x2="163.9" y2="346.05"/><path class="cls-7" d="M726.12,409.77c38.72-10.52,53,141.13,33.44,145.55S703.9,415.81,726.12,409.77Z"/><path class="cls-6" d="M735,435.11c3.16,9.18,20.82,73.53,24.61,120.21"/><path class="cls-5" d="M873.84,386.5c8.92,0,18.75,14.39,19.39,19.39,1.81,14.1-3.81,23.54-3.49,29.22.72,12.67,5.42,24,1.94,30.91-20.53,40.9-90.51,31.85-98.85,45.92-2.14,4-8.29,16.62-8.29,16.62-3.25-3.25-11.48-25.52-11.48-34.21s12.06-32.59,35.72-49.64C821.29,435.7,844.27,386.5,873.84,386.5Z"/><path class="cls-6" d="M777.37,550.65c2.61-9,28.08-86,91.77-121.59"/><path class="cls-6" d="M847.15,444c.5-3.75,3.06-11.54,0-23.06"/><path class="cls-6" d="M831.69,458.23c.54-6.08,0-14.72-2.17-19.63"/><path class="cls-6" d="M817.42,474.67a84.52,84.52,0,0,1,31.81,1.65"/><polygon class="cls-16" points="858.46 470.9 782.17 786 934.75 786 858.46 470.9"/><path class="cls-16" d="M123.93,786c0-9.4,17-42,46-42,28.33,0,34.84,10.38,58.35,10.38,17.56,0,16.36-6.92,32.83-6.92,33.68,0,46.78,26.7,46.78,38.57Z"/><line class="cls-8" x1="858.46" y1="570.59" x2="858.46" y2="786"/><line class="cls-8" x1="967.88" y1="458.23" x2="967.88" y2="786"/><line class="cls-8" x1="858.46" y1="651.07" x2="878.7" y2="630.83"/><line class="cls-8" x1="858.46" y1="738.48" x2="826.98" y2="707"/><line class="cls-8" x1="967.88" y1="551.86" x2="944.86" y2="528.84"/><line class="cls-8" x1="967.88" y1="684.37" x2="1013.74" y2="638.5"/><path class="cls-17" d="M83.5,211.1c0-14.57,36.18-17.66,50.47-17.66,29,0,30.93-16.6,55-16.6,21.16,0,31.93,17.13,51.65,17.13,42.32,0,51.74-48.71,92.89-48.71,41.86,0,39.73,50.85,78.69,50.85,19.81,0,138.82,3.75,138.82,15Z"/><path class="cls-17" d="M660,272.71c0-9.21,31.36-23.62,48.51-23.62,33.83,0,23.27,11.81,44.55,11.81,24.25,0,29.79-52.59,66.69-52.59,40.33,0,34,51.43,58.75,51.43,10.66,0,16-5,31.16-5,8.78,0,18.4,8.78,18.4,18Z"/></g></g></svg>